# xmcd CD database file
#
# Track frame offsets:
#	150
#	11260
#	24482
#	38425
#	51880
#	64410
#	75005
#	91415
#	103310
#	118115
#	132510
#	145512
#	157047
#	173853
#	186053
#	201705
#	216535
#	230460
#	245319
#	261003
#	272521
#	283658
#	297838
#	310637
#
# Disc length: 4359 seconds
#
# Revision: 0
# Processed by: cddbd v1.5.2PL0 Copyright (c) Steve Scherf et al.
# Submitted via: ACXtractor (MTCDDB.DLL V2003.12.21)
#
DISCID=57110518
DTITLE=Col Thompson - 17th Anniversary  Collection C.D. 4
DYEAR=2000
DGENRE=Country
TTITLE0=Back to the Salt Bush Plains
TTITLE1=The Man From Never Never
TTITLE2=Battle with the Roan
TTITLE3=The Last of the Breed
TTITLE4=Return of the Stockmen
TTITLE5=The Saddle is His Home
TTITLE6=Woah Bullock Woah
TTITLE7=Copped the Lot
TTITLE8=Old Time Drovers Lament
TTITLE9=The Australian Bushman
TTITLE10=Wild Rugged Land that I Love
TTITLE11=The Dessert Lair
TTITLE12=The Bushman's song
TTITLE13=Condomine Horse Bell
TTITLE14=Bully Ho
TTITLE15=The Masters Call
TTITLE16=My Hero's have always been Cowboys
TTITLE17=The Place I Call Home
TTITLE18=The Strawberry Roan
TTITLE19=Knight in Leather Armour
TTITLE20=Jack Reilly
TTITLE21=The Dying Stockman
TTITLE22=Ghost Riders in the Sky
TTITLE23=You don't have to Call me on the Phone
EXTD=ID3G:   2 YEAR: 2000
EXTT0=
EXTT1=
EXTT2=
EXTT3=
EXTT4=
EXTT5=
EXTT6=
EXTT7=
EXTT8=
EXTT9=
EXTT10=
EXTT11=
EXTT12=
EXTT13=
EXTT14=
EXTT15=
EXTT16=
EXTT17=
EXTT18=
EXTT19=
EXTT20=
EXTT21=
EXTT22=
EXTT23=
PLAYORDER=
